<svg id="Layer_1" enable-background="new 0 0 511.219 511.219" height="512" viewBox="0 0 511.219 511.219" width="512" xmlns="http://www.w3.org/2000/svg"><g><g><path d="m493.338 162.875-146.067-66.697c-8-3.653-17.186-3.685-25.212-.089l-149.183 66.858c-11.868 5.319-19.074 17.562-17.965 30.52l18.146 211.844h23.422l79.28-8.823 57.243 8.823h159.945l18.16-212.005c1.103-12.879-6.01-25.061-17.769-30.431z" fill="#5a915a"/><path d="m333.002 205.288v200.023h-136.522c0 .001 106.256-35.012 136.522-200.023z" fill="#00492c"/></g><g><g><g><g><g><path d="m84.386 97.649-.591 4.073c-1.822 12.55 7.91 23.797 20.592 23.797 13.031 0 22.855-11.841 20.45-24.648l-.605-3.222z" fill="#ffb69e"/><path d="m165.966 196.367v98.233c0 11.207 9.085 20.292 20.291 20.292s20.291-9.085 20.291-20.292v-98.233l-20.291-5.379z" fill="#ffb69e"/><g id="XMLID_51_"><path d="m132.919 511.082c-13.448 0-24.349-10.901-24.349-24.349v-194.627c0-13.448 10.902-24.349 24.349-24.349s24.349 10.901 24.349 24.349v194.627c.001 13.448-10.901 24.349-24.349 24.349z" fill="#414b82"/></g><g id="XMLID_50_"><path d="m73.7 511.082c-13.448 0-24.349-10.901-24.349-24.349v-194.627c0-13.448 10.902-24.349 24.349-24.349s24.349 10.901 24.349 24.349v194.627c0 13.448-10.901 24.349-24.349 24.349z" fill="#5f6e9b"/></g><ellipse cx="103.313" cy="42.191" fill="#ffb69e" rx="42.054" ry="42.054" transform="matrix(.055 -.999 .999 .055 55.474 143.013)"/><path d="m0 196.367v98.233c0 11.207 9.085 20.292 20.291 20.292s20.291-9.085 20.291-20.292v-98.233l-16.504-12.906z" fill="#ffb69e"/><path d="m206.548 145.428c-.132-26.346-22.009-47.778-48.767-47.778h-33.549c.042 10.475-9.745 19.267-19.958 19.267-10.946 0-19.091-8.761-19.887-19.267h-35.54c-26.802 0-48.714 21.433-48.846 47.778v.102 50.838h40.582v-50.764c.038-3.862 3.969-7.371 8.264-7.371h.504v153.874h107.918l-.189-153.874h.7c4.252 0 8.143 3.505 8.185 7.365v50.771h40.582v-50.839c.001-.034.001-.068.001-.102z" fill="#64afff"/></g></g></g></g><path d="m144.537 56.508h-9.263v-6.142c0-4.465-3.619-8.084-8.084-8.084h-49.011c-4.465 0-8.084 3.619-8.084 8.084v6.142h-8.084c-2.375 0-4.3 1.925-4.3 4.3v6.399c0 2.375 1.925 4.3 4.3 4.3h8.084v6.142c0 4.465 3.62 8.084 8.084 8.084h49.01c4.465 0 8.084-3.619 8.084-8.084v-6.142h9.263c2.375 0 4.3-1.925 4.3-4.3v-6.399c.001-2.375-1.924-4.3-4.299-4.3z" fill="#55c7a6"/></g><g fill="#e64937"><path d="m218.117 60.572v-2.696c-5.3-.65-9.159-3.766-9.159-10.833v-12.32c0-8.044 4.975-10.973 11.391-10.973s11.438 2.929 11.438 10.973v12.32c0 7.067-3.905 10.183-9.205 10.833v2.696c0 1.488-1.116 2.232-2.232 2.232-1.117.001-2.233-.743-2.233-2.232zm6.416-25.849c0-3.162-1.581-4.649-4.185-4.649s-4.138 1.487-4.138 4.649v12.32c0 2.139.651 3.487 1.906 4.185v-2.046c0-1.534 1.116-2.186 2.231-2.186 1.116 0 2.232.651 2.232 2.186v2.046c1.208-.697 1.952-2.046 1.952-4.185v-12.32z"/><path d="m252.471 25.935c0-1.534 1.767-2.185 3.627-2.185 1.767 0 3.626.65 3.626 2.185v21.108c0 7.997-5.16 10.973-11.716 10.973-6.603 0-11.717-2.976-11.717-10.973v-21.108c0-1.534 1.767-2.185 3.627-2.185 1.767 0 3.626.65 3.626 2.185v21.108c0 3.162 1.674 4.649 4.464 4.649 2.789 0 4.463-1.487 4.463-4.649z"/><path d="m262.276 54.761c0-.14.047-.325.094-.511l8.647-28.361c.512-1.628 2.604-2.418 4.742-2.418s4.231.79 4.742 2.418l8.694 28.361c.047.186.093.371.093.511 0 1.721-2.649 2.976-4.648 2.976-1.163 0-2.093-.372-2.372-1.348l-1.58-5.813h-9.811l-1.581 5.813c-.278.976-1.208 1.348-2.371 1.348-1.999-.001-4.649-1.255-4.649-2.976zm16.878-9.764-3.395-12.46-3.394 12.46z"/><path d="m291.981 25.935c0-1.162.883-2.185 2.231-2.185h9.624c6.37 0 11.438 2.371 11.438 9.949 0 5.207-2.371 8.183-5.626 9.438l5.673 10.275c.186.278.232.604.232.837 0 1.813-2.418 3.766-4.557 3.766-.93 0-1.813-.372-2.324-1.349l-6.37-12.367h-3.068v11.205c0 1.487-1.813 2.231-3.627 2.231-1.813 0-3.626-.744-3.626-2.231zm7.253 4.138v8.647h4.603c2.604 0 4.185-1.069 4.185-4.324 0-3.254-1.581-4.323-4.185-4.323z"/><path d="m316.803 54.761c0-.14.047-.325.094-.511l8.647-28.361c.512-1.628 2.604-2.418 4.742-2.418s4.231.79 4.742 2.418l8.694 28.361c.047.186.093.371.093.511 0 1.721-2.649 2.976-4.648 2.976-1.163 0-2.093-.372-2.372-1.348l-1.58-5.813h-9.811l-1.581 5.813c-.278.976-1.208 1.348-2.371 1.348-1.999-.001-4.649-1.255-4.649-2.976zm16.878-9.764-3.395-12.46-3.394 12.46z"/><path d="m362.595 55.784-8.834-16.087v15.808c0 1.487-1.813 2.231-3.627 2.231-1.813 0-3.626-.744-3.626-2.231v-29.523c0-1.534 1.813-2.231 3.626-2.231 2.604 0 3.58.232 5.348 3.626l7.531 14.367v-15.809c0-1.534 1.813-2.185 3.627-2.185s3.626.65 3.626 2.185v29.57c0 1.487-1.813 2.231-3.626 2.231-1.674 0-3.162-.325-4.045-1.952z"/><path d="m395.414 23.75c1.534 0 2.185 1.674 2.185 3.208 0 1.767-.79 3.301-2.185 3.301h-6.416v25.246c0 1.487-1.813 2.231-3.627 2.231s-3.626-.744-3.626-2.231v-25.246h-6.416c-1.396 0-2.186-1.534-2.186-3.301 0-1.534.65-3.208 2.186-3.208z"/><path d="m400.478 25.935c0-1.534 1.813-2.185 3.626-2.185s3.627.65 3.627 2.185v29.57c0 1.487-1.813 2.231-3.627 2.231-1.813 0-3.626-.744-3.626-2.231z"/><path d="m428.837 55.784-8.834-16.087v15.808c0 1.487-1.813 2.231-3.627 2.231-1.813 0-3.626-.744-3.626-2.231v-29.523c0-1.534 1.813-2.231 3.626-2.231 2.604 0 3.58.232 5.348 3.626l7.531 14.367v-15.809c0-1.534 1.813-2.185 3.627-2.185s3.626.65 3.626 2.185v29.57c0 1.487-1.813 2.231-3.626 2.231-1.674 0-3.162-.325-4.045-1.952z"/><path d="m448.778 37.931h6.974c1.396 0 2.186 1.348 2.186 2.836 0 1.255-.651 2.743-2.186 2.743h-6.974v7.903h12.46c1.396 0 2.186 1.488 2.186 3.208 0 1.488-.651 3.115-2.186 3.115h-16.552c-1.58 0-3.161-.744-3.161-2.231v-29.523c0-1.487 1.581-2.231 3.161-2.231h16.552c1.534 0 2.186 1.627 2.186 3.115 0 1.72-.79 3.208-2.186 3.208h-12.46z"/></g></g></svg>