<svg id="Capa_1" enable-background="new 0 0 512 512" height="512" viewBox="0 0 512 512" width="512" xmlns="http://www.w3.org/2000/svg"><g><path d="m512 256c0 88.63-45.05 166.75-113.5 212.7v-.01c-92.9 28.24-192.1 28.24-285 .01-68.45-45.95-113.5-124.07-113.5-212.7 0-46.22 12.25-89.57 33.68-127 44.12-77.07 127.16-129 222.32-129s178.2 51.93 222.32 129c21.43 37.43 33.68 80.78 33.68 127z" fill="#81f700"/><path d="m512 256c0 46.01-12.14 89.18-33.39 126.49-19.68 34.56-47.19 64.1-80.11 86.2-92.9 28.24-192.1 28.24-285 .01-26.09-17.51-48.79-39.7-66.88-65.37-29.37-41.66-46.62-92.48-46.62-147.33 0-46.22 12.25-89.57 33.68-127 25.36 44.29 63.56 80.28 109.54 102.87 34.03 16.74 72.31 26.13 112.78 26.13s78.75-9.39 112.78-26.13c45.98-22.59 84.18-58.58 109.54-102.87 21.43 37.43 33.68 80.78 33.68 127z" fill="#00cc7f"/><g><g><path d="m335.984 70.264v52.374h-52.375v104.75h-52.375v-104.75h-52.374v-52.374h52.374v-52.375h52.375v52.375z" fill="#464f6e"/><path d="m398.5 318.98v149.71c-40.73 27.35-89.75 43.31-142.5 43.31-52.74 0-101.76-15.95-142.5-43.3v-149.72c0-32.81 11.09-63.03 29.72-87.11 26.06-33.69 66.89-55.39 112.78-55.39 39.35 0 74.98 15.95 100.76 41.74 4.29 4.29 8.31 8.84 12.02 13.65 18.63 24.08 29.72 54.3 29.72 87.11z" fill="#464f6e"/><g fill="#303c5a"><path d="m398.5 318.98v149.71c-40.73 27.35-89.75 43.31-142.5 43.31v-335.52c39.35 0 74.98 15.95 100.76 41.74 4.29 4.29 8.31 8.84 12.02 13.65 18.63 24.08 29.72 54.3 29.72 87.11z"/><path d="m335.984 70.264v52.374h-52.375v104.75h-27.854v-209.499h27.854v52.375z"/></g></g><path d="m349.285 276.401v21.234c0 4.64-3.759 8.4-8.394 8.4h-169.778c-4.64 0-8.399-3.759-8.399-8.4v-21.234c0-4.635 3.759-8.395 8.399-8.395h169.777c4.636.001 8.395 3.76 8.395 8.395z" fill="#303c5a"/><path d="m349.285 353.018v21.234c0 4.635-3.759 8.395-8.394 8.395h-169.778c-4.64 0-8.399-3.759-8.399-8.395v-21.234c0-4.635 3.759-8.395 8.399-8.395h169.777c4.636 0 8.395 3.76 8.395 8.395z" fill="#303c5a"/><g fill="#22273b"><path d="m349.285 276.401v21.234c0 4.64-3.759 8.4-8.394 8.4h-84.891v-38.028h84.891c4.635 0 8.394 3.759 8.394 8.394z"/><path d="m349.285 353.018v21.234c0 4.635-3.759 8.395-8.394 8.395h-84.891v-38.023h84.891c4.635-.001 8.394 3.759 8.394 8.394z"/></g></g><path d="m512 256c0 141.38-114.62 256-256 256s-256-114.62-256-256c0-46.22 12.25-89.57 33.68-127 44.12-77.07 127.16-129 222.32-129s178.2 51.93 222.32 129c21.43 37.43 33.68 80.78 33.68 127z" fill="none"/></g></svg>