<svg id="Layer_1" enable-background="new 0 0 512 512" height="512" viewBox="0 0 512 512" width="512" xmlns="http://www.w3.org/2000/svg"><g><path d="m245.002 0c-1.619 0-3.23.03-4.841.061l-98.327 467.207c31.358 14.58 66.308 22.735 103.168 22.735 135.311 0 245.002-109.691 245.002-245.002 0-135.31-109.691-245.001-245.002-245.001z" fill="#7255ce"/><path d="m241.164.049c-133.539 2.053-241.164 110.925-241.164 244.953 0 98.808 58.498 183.942 142.745 222.691.77-.652 1.488-1.364 2.119-2.151 1.79-2.23 5.092-2.23 6.882 0 2.87 3.576 7.278 5.866 12.221 5.866 4.683 0 8.882-2.058 11.748-5.318 2.124-2.416 5.872-2.655 8.3-.544 2.909 2.53 6.761 4.003 10.96 3.821 6.821-.296 12.379-5.076 14.262-11.358.882-2.943 4.328-4.038 6.767-2.429 2.693 1.778 5.967 2.745 9.481 2.549 8.362-.467 14.767-7.671 14.767-16.046v-16.186c-9.1-18.456-14.223-39.209-14.223-61.14 0-71.114 53.788-129.891 122.815-137.812 7.909-74.33-3.479-176.23-107.68-226.896z" fill="#e9efff"/><path d="m0 245.002c0 98.808 58.498 183.942 142.745 222.691.77-.652 1.488-1.364 2.119-2.151-30.475-30.475-15.961-70.965-11.603-81.115.715-1.665 1.034-3.464.941-5.273l-3.295-64.164c-.206-4.001-2.392-7.672-5.882-9.639-18.517-10.435-12.463-39.806-12.463-39.806l-9.983-47.834c-68.319-68.319-9.023-164.431-7.998-166.078-57.552 44.827-94.581 114.765-94.581 193.369z" fill="#bec8f7"/><g fill="#3c58a0"><path d="m289.495 248.271c-3.638-22.352-22.763-43.257-81.29-35.957-17.273 2.154-29.651 17.748-27.838 35.059 1.945 18.582 9.199 41.074 31.165 53.171 9.694 5.339 18.236 8.291 25.742 9.52 10.937-25.397 29.247-46.897 52.221-61.793z"/><path d="m289.495 248.271c-3.638-22.352-22.763-43.257-81.29-35.957-17.273 2.154-29.651 17.748-27.838 35.059 1.945 18.582 9.199 41.074 31.165 53.171 9.694 5.339 18.236 8.291 25.742 9.52 10.937-25.397 29.247-46.897 52.221-61.793z"/><path d="m88.404 212.314c17.273 2.154 29.65 17.748 27.838 35.06-1.945 18.582-9.199 41.074-31.164 53.171-41.707 22.969-62.107 1.813-70.267-11.107-10.8-17.1-28.268-89.829 73.593-77.124z"/></g><path d="m212.039 211.874c1.273.136 2.553.276 3.865.44 17.273 2.154 29.65 17.748 27.838 35.06-1.945 18.582-9.199 41.074-31.164 53.171-.174.096-.345.185-.518.279 9.474 5.154 17.846 8.035 25.214 9.241 10.937-25.397 29.247-46.898 52.222-61.793-3.557-21.856-21.929-42.324-77.457-36.398z" fill="#1c2e7a"/><path d="m88.404 212.314c-15.934-1.988-28.947-1.884-39.523-.23.676.078 1.336.145 2.023.23 17.273 2.154 29.65 17.748 27.838 35.06-1.945 18.582-9.199 41.074-31.164 53.171-4.926 2.713-9.551 4.803-13.897 6.371 11.576 5.525 28.185 6.413 51.397-6.371 21.966-12.097 29.219-34.589 31.164-53.171 1.813-17.312-10.565-32.906-27.838-35.06z" fill="#1c2e7a"/><path d="m180.501 352.317c-6.888-8.782-11.172-21.112-11.172-34.767 0-.017 0-.033 0-.05.003-3.555-1.093-7.032-3.249-9.858-5.478-7.18-11.667-11.858-17.775-11.858s-12.298 4.678-17.775 11.858c-2.156 2.826-3.252 6.304-3.249 9.859v.05c0 13.654-4.285 25.985-11.172 34.767-2.55 3.251-3.806 7.351-3.501 11.472.575 7.761 3.101 13.941 8.199 16.857 9.683 5.536 16.672.893 21.181-4.935 3.188-4.12 9.447-4.12 12.635 0 4.509 5.828 11.498 10.471 21.181 4.935 5.099-2.915 7.625-9.096 8.199-16.857.304-4.122-.951-8.222-3.502-11.473z" fill="#3c58a0"/><g><path d="m180.501 352.317c-6.888-8.782-11.172-21.112-11.172-34.767 0-.017 0-.033 0-.05.003-3.555-1.093-7.032-3.249-9.858-5.478-7.18-11.667-11.858-17.775-11.858-3.699 0-7.428 1.725-11.011 4.673 2.822 2.529 5.413 6.04 7.7 10.22 1.707 3.118 2.267 6.721 1.73 10.235-.003.016-.005.033-.007.049-2.053 13.499.329 26.333 5.818 36.051 2.032 3.598 2.658 7.84 1.736 11.868-.414 1.808-.927 3.507-1.537 5.081.698.465 1.34 1.042 1.888 1.749 4.509 5.829 11.498 10.472 21.181 4.936 5.099-2.916 7.625-9.096 8.199-16.857.305-4.121-.95-8.221-3.501-11.472z" fill="#1c2e7a"/></g><ellipse cx="364.758" cy="364.758" fill="#ffdd40" rx="140.149" ry="140.149" transform="matrix(.707 -.707 .707 .707 -151.088 364.758)"/><path d="m462.06 465.615c-1.196-1.458-1.751-3.222-1.987-4.767-.334-2.191-2.152-3.872-4.353-4.134-40.841-4.865-47.336-37.06-48.362-48.006-.19-2.031-1.656-3.658-3.619-4.214-4.429-1.255-5.879-4.103-6.298-6.363-.324-1.747-1.611-3.105-3.276-3.727-2.755-1.028-4.043-3.321-4.643-5.154-.501-1.531-1.755-2.733-3.309-3.158-6.803-1.859-8.418-7.218-8.72-10.711-.164-1.899-1.362-3.532-3.13-4.246-11.129-4.496-11.339-13.886-10.495-19.034.316-1.927-.563-3.9-2.247-4.889-5.126-3.013-4.965-8.359-4.244-11.69.371-1.714-.226-3.443-1.472-4.677-2.534-2.509-2.63-5.709-2.247-7.991.289-1.726-.328-3.442-1.622-4.62-3.026-2.755-3.043-6.142-2.466-8.597.479-2.036-.4-4.14-2.167-5.258-25.347-16.039-18.879-53.4-16.117-65.089.441-1.867-.25-3.835-1.778-4.994-1.635-1.24-2.484-2.827-2.883-4.432-58.869 16.609-102.015 70.712-102.015 134.895 0 77.402 62.747 140.149 140.149 140.149 37.796-.001 72.093-14.968 97.301-39.293z" fill="#ffb332"/><g><path d="m364.758 512c-81.189 0-147.241-66.052-147.241-147.242 0-81.189 66.052-147.242 147.241-147.242 81.19 0 147.242 66.052 147.242 147.242s-66.053 147.242-147.242 147.242zm0-280.299c-73.368 0-133.057 59.689-133.057 133.057s59.689 133.057 133.057 133.057c73.369 0 133.058-59.689 133.058-133.057s-59.69-133.057-133.058-133.057z" fill="#ffe98d"/></g><path d="m468.571 469.073c-.519-.333-1.105-.585-1.746-.715-4.787-.977-6.313-4.63-6.752-7.511-.132-.866-.502-1.646-1.03-2.297-24.113 24.238-57.476 39.265-94.285 39.265-73.368 0-133.057-59.689-133.057-133.057 0-61.683 42.193-113.691 99.231-128.695-.325-.682-.801-1.295-1.426-1.769-3.527-2.676-3.425-6.961-2.943-9.579.133-.722.088-1.45-.103-2.138-62.679 16.9-108.944 74.234-108.944 142.18 0 81.189 66.052 147.242 147.241 147.242 40.468.001 77.172-16.411 103.814-42.926z" fill="#ffdd40"/><g><path d="m364.758 422.954c-32.61 0-59.141-26.53-59.141-59.141s26.531-59.141 59.141-59.141 59.141 26.53 59.141 59.141-26.531 59.141-59.141 59.141zm0-104.096c-24.789 0-44.956 20.167-44.956 44.956s20.167 44.956 44.956 44.956 44.956-20.167 44.956-44.956-20.167-44.956-44.956-44.956z" fill="#4b6bb2"/></g><path d="m364.758 422.955c16.107 0 30.724-6.48 41.4-16.961-.63-.701-1.464-1.229-2.419-1.499-4.429-1.255-5.879-4.103-6.298-6.363-.164-.884-.576-1.667-1.157-2.307-8.12 7.999-19.255 12.946-31.526 12.946-24.789 0-44.956-20.167-44.956-44.956 0-20.876 14.304-38.472 33.625-43.507-.282-.779-.753-1.492-1.392-2.073-3.026-2.755-3.043-6.142-2.466-8.597.234-.997.139-2.008-.222-2.913-25.159 6.798-43.73 29.811-43.73 57.091 0 32.608 26.531 59.139 59.141 59.139z" fill="#3c58a0"/><path d="m419.722 336.212c-2.69-.227-4.354-3.11-3.209-5.554 12.574-26.823 2.379-59.531-24.296-74.189-3.521-1.934-7.965-.566-9.77 3.068-1.694 3.408-.237 7.601 3.09 9.447 3.503 1.943 6.662 4.334 9.424 7.078 7.495 7.447 10.652 18.337 7.739 28.493-4.727 16.478-19.989 28.563-37.941 28.563-17.545 0-32.587-11.573-37.64-27.565-3.414-10.803-.021-22.463 8.215-30.243 2.573-2.431 5.468-4.562 8.646-6.325 3.328-1.846 4.785-6.039 3.092-9.448-1.805-3.633-6.248-5.002-9.771-3.068-26.572 14.6-36.946 47.247-24.297 74.192 1.147 2.444-.521 5.324-3.211 5.553-29.331 2.501-52.794 27.516-52.143 58.171.082 3.865 3.241 6.942 7.088 6.942.051 0 .103-.001.153-.002 3.916-.083 7.023-3.325 6.94-7.241-.095-4.497.516-8.903 1.754-13.087 2.79-9.423 10.115-16.963 19.574-19.627 27.548-7.759 56.758 17.76 48.542 48.421-1.703 6.357-4.908 12.121-9.358 16.838-7.385 7.827-18.563 10.712-28.945 7.881-3.738-1.02-7.369-2.554-10.785-4.605-2.818-1.691-6.465-1.442-8.786.886-3.406 3.417-2.566 8.822 1.281 11.152 26.204 15.881 59.616 8.063 76.444-16.066 1.545-2.215 4.87-2.214 6.414 0 16.817 24.11 50.215 31.962 76.443 16.066 3.847-2.33 4.687-7.736 1.28-11.153-2.32-2.328-5.967-2.577-8.784-.886-3.417 2.051-7.048 3.586-10.786 4.606-10.217 2.786-21.254.079-28.607-7.543-11.916-12.35-14.706-31.618-5.753-47.127 9.142-15.833 27.423-22.802 44.049-18.5 9.741 2.521 17.366 10.181 20.179 19.842 1.186 4.073 1.778 8.355 1.703 12.724-.065 3.82 2.855 7.186 6.669 7.408 4.051.236 7.424-2.925 7.509-6.93.644-30.382-22.547-55.671-52.146-58.172zm-54.964 42.88c-8.438 0-15.278-6.84-15.278-15.278s6.84-15.278 15.278-15.278 15.277 6.84 15.277 15.278-6.839 15.278-15.277 15.278z" fill="#3c58a0"/><path d="m361.551 425.878c1.545-2.215 4.87-2.215 6.414 0 13.887 19.909 39.078 28.716 62.205 22.235-5.669-3.624-9.947-8-13.165-12.568-7.277-.279-14.304-3.198-19.494-8.578-10.041-10.406-13.601-25.725-9.116-39.568-.594-.614-1.341-1.078-2.183-1.308-6.803-1.859-8.418-7.218-8.72-10.711-.068-.785-.32-1.518-.708-2.166-2.796 3.572-7.138 5.877-12.026 5.877-8.438 0-15.278-6.84-15.278-15.277 0-7.881 5.968-14.364 13.631-15.186-.38-.567-.88-1.058-1.49-1.416-5.126-3.013-4.965-8.359-4.244-11.69.238-1.1.074-2.204-.401-3.181-14.094-2.838-25.571-13.221-29.858-26.788-2.679-8.477-1.151-17.472 3.603-24.716-1.682-6.098-2.272-12.439-2.249-18.382-19.891 16.357-26.603 44.487-15.469 68.207 1.147 2.444-.521 5.324-3.211 5.553-29.331 2.502-52.794 27.516-52.143 58.171.082 3.865 3.241 6.942 7.088 6.942.051 0 .103-.001.153-.002 3.916-.083 7.023-3.326 6.94-7.241-.095-4.496.516-8.903 1.754-13.086 2.79-9.423 10.115-16.963 19.574-19.627 27.548-7.758 56.758 17.76 48.542 48.421-1.703 6.357-4.908 12.121-9.358 16.838-7.385 7.828-18.563 10.712-28.945 7.881-3.738-1.02-7.369-2.554-10.785-4.605-2.818-1.691-6.465-1.442-8.786.886-3.406 3.417-2.566 8.822 1.281 11.152 26.204 15.879 59.616 8.062 76.444-16.067z" fill="#1c2e7a"/></g></svg>