<svg id="Layer_1" enable-background="new 0 0 512.642 512.642" height="512" viewBox="0 0 512.642 512.642" width="512" xmlns="http://www.w3.org/2000/svg"><g><g><g id="XMLID_7003_"><path d="m94.205 281.121.016 206.998c.001 13.545 10.982 24.524 24.527 24.523s24.524-10.982 24.523-24.527l.245-197.44z" fill="#414b82"/></g><g id="XMLID_6999_"><path d="m33.743 290.674v197.516c.041 13.52 11.332 24.451 24.844 24.451h.076c13.545-.041 24.492-11.055 24.451-24.6l-.627-206.921z" fill="#5f6e9b"/></g><path d="m114.863 101.896h-52.471c-15.825 0-28.648 12.829-28.648 28.654v160.125h109.774v-160.126c-.001-15.825-12.83-28.653-28.655-28.653z" fill="#64afff"/><ellipse cx="118.747" cy="45.583" fill="#ffb69e" rx="45.583" ry="45.583" transform="matrix(.055 -.999 .999 .055 66.667 161.627)"/><g id="XMLID_6996_"><path d="m179.052 60.164c-11.254-.671-20.947 7.916-21.62 19.184l-3.456 57.888-26.667-9.444-16.808 16.411 4.244 22.503 51.19 18.13c12.772 4.522 26.413-4.442 27.225-18.048l5.074-85.004c.675-11.268-7.914-20.948-19.182-21.62z" fill="#ffb69e"/></g><g id="XMLID_9_"><path d="m127.31 127.791-41.037-14.534c-10.641-3.769-22.32 1.802-26.088 12.442-3.769 10.64 1.802 22.32 12.442 26.089l42.119 14.917z" fill="#4699f2"/></g></g><path d="m475.625 120.835c-3.13-1.807-7.134-.735-8.942 2.396l-1.456 2.522-3.474-2.006c.97-3.006 1.5-6.208 1.5-9.532s-.53-6.526-1.5-9.532l3.474-2.006 1.456 2.522c1.817 3.146 5.826 4.195 8.942 2.396 3.131-1.807 4.203-5.811 2.396-8.941-1.125-1.949-6.789-11.759-9.458-16.382-1.808-3.131-5.811-4.203-8.942-2.396s-4.203 5.811-2.396 8.941l1.456 2.522-3.485 2.012c-4.294-4.738-10.026-8.147-16.499-9.539v-4.01h2.912c3.615 0 6.546-2.931 6.546-6.546s-2.93-6.546-6.546-6.546h-18.916c-3.615 0-6.546 2.931-6.546 6.546s2.93 6.546 6.546 6.546h2.912v4.01c-6.473 1.392-12.205 4.801-16.499 9.539l-3.485-2.012 1.456-2.522c1.807-3.131.735-7.134-2.396-8.941-3.13-1.808-7.134-.735-8.942 2.396l-9.458 16.382c-1.807 3.131-.735 7.134 2.396 8.941 1.031.595 2.156.878 3.267.878 2.262 0 4.462-1.174 5.675-3.274l1.456-2.522 3.474 2.005c-.97 3.006-1.5 6.208-1.5 9.532 0 3.325.53 6.526 1.5 9.532l-3.474 2.006-1.456-2.522c-1.808-3.131-5.811-4.203-8.942-2.396s-4.203 5.811-2.396 8.942l9.458 16.382c1.817 3.146 5.826 4.195 8.942 2.396 3.131-1.808 4.203-5.811 2.396-8.941l-1.456-2.522 3.485-2.012c4.294 4.738 10.026 8.147 16.499 9.539v4.011h-2.912c-3.615 0-6.546 2.93-6.546 6.546 0 3.615 2.93 6.546 6.546 6.546h18.916c3.615 0 6.546-2.93 6.546-6.546 0-3.615-2.93-6.546-6.546-6.546h-2.912v-4.011c6.473-1.392 12.205-4.801 16.499-9.539l3.485 2.012-1.456 2.522c-1.807 3.131-.735 7.134 2.396 8.941 3.12 1.801 7.128.745 8.942-2.396 3.387-5.867 6.072-10.517 9.458-16.382 1.807-3.13.734-7.134-2.396-8.941zm-43.473 11.39c-9.931 0-18.01-8.079-18.01-18.01s8.079-18.01 18.01-18.01 18.01 8.079 18.01 18.01-8.08 18.01-18.01 18.01z" fill="#a5c8cd"/><path d="m314.125 166.291c-2.433-1.405-5.545-.571-6.95 1.862l-1.132 1.96-2.7-1.559c.754-2.336 1.166-4.825 1.166-7.409s-.412-5.072-1.166-7.408l2.7-1.559 1.132 1.96c1.412 2.445 4.528 3.26 6.95 1.862 2.433-1.405 3.267-4.516 1.862-6.949-.875-1.515-5.276-9.139-7.351-12.732-1.405-2.433-4.516-3.267-6.95-1.862-2.433 1.405-3.267 4.516-1.862 6.949l1.132 1.96-2.708 1.564c-3.337-3.683-7.793-6.332-12.823-7.414v-3.116h2.264c2.81 0 5.087-2.278 5.087-5.087s-2.278-5.087-5.087-5.087h-14.702c-2.81 0-5.087 2.278-5.087 5.087s2.278 5.087 5.087 5.087h2.264v3.117c-5.031 1.082-9.486 3.731-12.823 7.414l-2.708-1.564 1.132-1.96c1.405-2.433.571-5.545-1.862-6.949-2.433-1.405-5.544-.571-6.95 1.862l-7.351 12.732c-1.405 2.433-.571 5.545 1.862 6.949.801.463 1.676.683 2.539.683 1.758 0 3.468-.912 4.411-2.545l1.132-1.96 2.7 1.559c-.754 2.336-1.166 4.825-1.166 7.408 0 2.584.412 5.072 1.166 7.409l-2.7 1.559-1.132-1.96c-1.405-2.433-4.517-3.267-6.95-1.862s-3.267 4.516-1.862 6.95l7.351 12.732c1.412 2.445 4.528 3.26 6.95 1.862 2.433-1.405 3.267-4.516 1.862-6.949l-1.132-1.96 2.708-1.564c3.337 3.682 7.792 6.332 12.823 7.414v3.117h-2.264c-2.81 0-5.087 2.278-5.087 5.087 0 2.81 2.278 5.087 5.087 5.087h14.702c2.81 0 5.087-2.278 5.087-5.087 0-2.81-2.278-5.087-5.087-5.087h-2.264v-3.117c5.031-1.082 9.486-3.731 12.823-7.414l2.708 1.564-1.132 1.96c-1.405 2.433-.571 5.544 1.862 6.949 2.425 1.4 5.54.579 6.95-1.862 2.633-4.56 4.719-8.174 7.351-12.732 1.405-2.435.571-5.546-1.862-6.951zm-33.788 8.853c-7.718 0-13.997-6.279-13.997-13.998 0-7.718 6.279-13.997 13.997-13.997s13.998 6.279 13.998 13.997-6.28 13.998-13.998 13.998z" fill="#a5c8cd"/><g fill="#c8e6eb"><path d="m221.707 48.013c40.136-17.25 96.856-29.062 156.837-24.274 5.518.44 9.634 5.271 9.194 10.789s-5.271 9.634-10.789 9.194c-.358-.029-.709-.076-1.054-.14l-.392-.075c-37.551-7.102-67.135-8.534-114.762-1.43-12.787 2.102-25.585 4.852-37.969 8.644l-.064.02c-.768.235-1.581-.197-1.816-.965-.22-.716.146-1.472.815-1.763z"/><path d="m226.369 65.284c46.631 7.683 99.033 29.075 145.192 64.081 4.411 3.345 5.275 9.632 1.93 14.042-3.345 4.411-9.632 5.274-14.043 1.93-.286-.217-.557-.446-.813-.686l-.29-.274c-35.062-33.068-58.191-43.692-61.199-45.717-18.392-10.812-46.983-23.726-71.34-30.521l-.065-.018c-.774-.216-1.226-1.018-1.01-1.792.202-.72.918-1.161 1.638-1.045z"/></g></g></svg>