<svg id="Layer_1" enable-background="new 0 0 511 511" height="512" viewBox="0 0 511 511" width="512" xmlns="http://www.w3.org/2000/svg"><g><g><path d="m450.101 0h-102.02c-8.089 0-14.646 6.557-14.646 14.646v15.944l-8.84 8.84c-1.93 1.93-1.93 5.06 0 6.99l8.84 8.84v15.944c0 8.089 6.557 14.646 14.646 14.646h102.02c8.089 0 14.646-6.557 14.646-14.646v-56.56c0-8.087-6.557-14.644-14.646-14.644z" fill="#55c7a6"/><g><g fill="#fff"><path d="m373.755 47.787v-.684c0-2.412-1.477-2.879-3.456-2.879-1.224 0-1.62-1.08-1.62-2.16s.396-2.16 1.62-2.16c1.368 0 2.808-.18 2.808-3.095 0-2.088-1.188-2.592-2.663-2.592-1.765 0-2.664.432-2.664 1.836 0 1.224-.54 2.052-2.628 2.052-2.592 0-2.915-.54-2.915-2.268 0-2.808 2.016-6.443 8.207-6.443 4.571 0 8.026 1.656 8.026 6.515 0 2.627-.972 5.075-2.771 5.903 2.124.792 3.672 2.375 3.672 5.291v.684c0 5.903-4.067 8.135-9.107 8.135-6.191 0-8.566-3.779-8.566-6.803 0-1.62.684-2.051 2.663-2.051 2.304 0 2.88.504 2.88 1.872 0 1.692 1.584 2.088 3.204 2.088 2.446-.001 3.31-.901 3.31-3.241z"/><path d="m398.128 35.801c0 2.987-1.44 4.787-3.564 5.507 2.664.9 4.428 3.06 4.428 6.768v.432c0 5.363-3.852 7.415-8.818 7.415-4.968 0-8.855-2.052-8.855-7.415v-.432c0-3.708 1.8-5.868 4.464-6.768-2.124-.72-3.563-2.52-3.563-5.507 0-4.5 3.312-6.407 7.955-6.407 4.64 0 7.953 1.907 7.953 6.407zm-4.752 11.23c0-2.34-1.188-3.42-3.203-3.42-2.017 0-3.24 1.08-3.24 3.42v.792c0 2.483 1.26 3.599 3.24 3.599 2.052 0 3.203-1.188 3.203-3.599zm-5.759-10.51c0 1.872.936 2.592 2.556 2.592 1.619 0 2.556-.72 2.556-2.592 0-1.836-.937-2.628-2.556-2.628-1.62 0-2.556.792-2.556 2.628z"/><path d="m424.879 34.289c-2.052 0-3.239 1.152-3.239 3.6v9.539c0 2.448 1.188 3.6 3.275 3.6 2.88 0 3.06-2.196 3.167-3.6.108-1.332 1.332-1.692 2.772-1.692 1.943 0 2.843.504 2.843 2.664 0 4.788-3.887 7.523-9.034 7.523-4.716 0-8.639-2.304-8.639-8.495v-9.539c0-6.191 3.923-8.495 8.639-8.495 5.147 0 9.034 2.591 9.034 7.163 0 2.16-.899 2.664-2.808 2.664-1.512 0-2.735-.396-2.808-1.692-.034-.937-.142-3.24-3.202-3.24z"/></g><g><path d="m406.184 35.517c-2.938 0-5.327-2.39-5.327-5.327s2.39-5.327 5.327-5.327 5.326 2.39 5.326 5.327-2.39 5.327-5.326 5.327zm0-7.298c-1.087 0-1.972.884-1.972 1.971s.885 1.971 1.972 1.971 1.971-.884 1.971-1.971-.884-1.971-1.971-1.971z" fill="#fff"/></g></g></g><g><g><g id="XMLID_7136_"><path d="m200.183 511c-13.145 0-23.801-10.656-23.801-23.801v-190.248c0-13.145 10.656-23.801 23.801-23.801s23.86 10.656 23.86 23.801v190.248c0 13.145-10.715 23.801-23.86 23.801z" fill="#414b82"/></g><g id="XMLID_7135_"><path d="m142.303 511c-13.145 0-23.811-10.656-23.811-23.801v-190.248c0-13.145 10.665-23.801 23.811-23.801s23.801 10.656 23.801 23.801v190.248c0 13.145-10.656 23.801-23.801 23.801z" fill="#5f6e9b"/></g></g><path d="m325.95 147.588c-7.2-8.255-19.732-9.106-27.985-1.906l-25.81 22.519-39.669 27.164v16.463c0 16.962 20.04 26.144 32.874 14.946l58.684-51.2c8.254-7.202 9.108-19.731 1.906-27.986z" fill="#ffb69e"/><path d="m191.817 111.954-.451-5.083h-39.534l-.452 5.08c-1.056 11.873 8.298 22.096 20.218 22.096 11.918 0 21.272-10.221 20.219-22.093z" fill="#ffb69e"/><g><path d="m224.485 106.871h-33.119c.444 10.654-9.446 19.717-19.77 19.717-11.065 0-19.26-9.029-19.765-19.717h-13.382l-35.968-28.266-18.563 11.814-7.727 17.975 42.302 33.239v155.318h105.551v-150.411c4.169 0 8.424 3.447 8.442 7.133v41.691h10.37l29.3-27.164v-14.627c-.131-25.751-21.515-46.702-47.671-46.702z" fill="#64afff"/></g><path d="m313.83 119.824-13.457 47.424c-1.463 5.156 1.531 10.523 6.687 11.986s10.522-1.531 11.985-6.687l13.609-47.961-7.534-6.621z" fill="#c8e6eb"/><path d="m332.655 124.585.896-3.156c.866-3.052.162-6.17-1.619-8.516l4.257-15.003c.878-3.094-.919-6.314-4.012-7.191-3.094-.878-6.314.919-7.191 4.012l-4.257 15.004c-2.747 1.061-4.984 3.345-5.85 6.397l-1.048 3.694z" fill="#e64937"/><g><circle cx="170.113" cy="68.749" fill="#ffa68a" r="41.108"/></g><path d="m102.482 78.605-2.32-1.823 61.293-39.7c9.195-5.955 11.821-18.236 5.865-27.431-5.955-9.194-18.235-11.818-27.43-5.865l-84.592 54.791c-11.412 7.391-12.163 23.843-1.473 32.243l22.366 17.574z" fill="#ffb69e"/></g></g></svg>