<svg id="Layer_1" enable-background="new 0 0 508.16 508.16" height="512" viewBox="0 0 508.16 508.16" width="512" xmlns="http://www.w3.org/2000/svg"><g><g id="XMLID_3581_"><path d="m280.152 508.16c-11.874 0-21.5-9.626-21.5-21.5v-172.578c0-11.874 9.626-21.5 21.5-21.5s21.5 9.626 21.5 21.5v172.578c0 11.874-9.626 21.5-21.5 21.5z" fill="#414b82"/></g><g id="XMLID_3582_"><path d="m227.849 508.16c-11.874 0-21.5-9.626-21.5-21.5v-172.578c0-11.874 9.626-21.5 21.5-21.5s21.5 9.626 21.5 21.5v172.578c0 11.874-9.626 21.5-21.5 21.5z" fill="#5f6e9b"/></g><g fill="#ffb69e"><path d="m213.962 115.859-66.515-107.116c-5.39-8.68-16.796-11.346-25.476-5.958-8.68 5.39-11.347 16.796-5.957 25.476l66.972 107.138 19.881-3.505z"/><path d="m236.163 141.148-.347 4.184c-.854 10.29 7.267 19.114 17.593 19.114 10.701 0 18.94-9.444 17.49-20.046l-.445-3.252z"/><path d="m386.188 2.786c-8.679-5.389-20.085-2.723-25.476 5.958l-66.515 107.116 11.437 16.193 20.209 2.204 66.302-105.995c5.39-8.68 2.723-20.086-5.957-25.476z"/></g><path d="m294.197 115.859-15.703 25.289h-8.041c.273 9.171-8.249 16.942-17.154 16.942-9.544 0-16.621-7.741-17.137-16.942h-6.498l-15.703-25.289-30.975 19.54 23.362 37.373v141.31h95.302v-141.149l24.192-38.676z" fill="#64afff"/><circle cx="253.657" cy="92.48" fill="#ffb69e" r="37.29"/><path d="m273.157 170.126c-8.628 0-16.051 5.079-19.5 12.398-3.449-7.32-10.872-12.398-19.5-12.398-11.912 0-21.568 9.657-21.568 21.568 0 21.568 41.068 45.17 41.068 45.17s41.068-22.333 41.068-45.17c0-11.911-9.656-21.568-21.568-21.568z" fill="#e64937"/></g></svg>