<svg id="Layer_1" enable-background="new 0 0 512 512" height="512" viewBox="0 0 512 512" width="512" xmlns="http://www.w3.org/2000/svg"><g><path d="m390.06 278.35c-3.36 20.31-11.32 39.57-23.27 56.37l12.34 12.34c6.97 6.97 17.04 9.91 26.27 7.66 23.6-5.73 47.92 1.07 65.06 18.22 13.01 13.01 20.18 30.32 20.17 48.73s-7.19 35.73-20.21 48.75c-26.89 26.89-70.62 26.91-97.49.04-17.04-17.05-23.96-42.19-18.06-65.61 2.34-9.28-.57-19.41-7.59-26.44l-12.02-12.01c-16.79 12.07-36.07 20.13-56.41 23.58v15.09c0 8.08 3.34 15.58 9.16 20.58 10.89 9.34 17.13 22.92 17.13 37.24 0 18.01-9.75 33.79-24.26 42.33-7.3 4.31-15.81 6.78-24.88 6.78-27.1 0-49.14-22.03-49.14-49.11 0-14.64 6.47-28.42 17.76-37.79 6.06-5.03 9.53-12.65 9.53-20.9v-14.06c-20.52-3.32-39.98-11.31-56.94-23.4l-16.12 16.13c-5.45 5.44-8.46 12.87-8.25 20.36.3 11.16-3.88 21.65-11.77 29.54-7.6 7.6-17.7 11.79-28.45 11.79h-.02c-10.76-.01-20.87-4.2-28.48-11.81-7.61-7.6-11.8-17.72-11.8-28.47-.01-10.76 4.18-20.87 11.78-28.48 6.47-6.47 14.69-10.44 23.76-11.5 6.27-.74 12.14-3.55 16.52-7.93l21.17-21.17c-12.15-16.92-20.22-36.35-23.61-56.85h-14.57c-8.17 0-15.73 3.41-20.75 9.35-9.36 11.08-23.03 17.44-37.51 17.44-27.08 0-49.11-22.04-49.11-49.14s22.03-49.14 49.11-49.14c14.48 0 28.15 6.36 37.51 17.44 5.02 5.94 12.58 9.35 20.75 9.35h14.57c3.4-20.53 11.49-39.98 23.66-56.91l-12.01-12.02c-7.03-7.02-17.16-9.93-26.44-7.59-23.42 5.9-48.56-1.02-65.61-18.06-26.87-26.87-26.85-70.6.04-97.49s70.62-26.91 97.49-.04c17.14 17.14 23.94 41.46 18.21 65.06-2.25 9.23.69 19.3 7.66 26.27l12.34 12.34c16.94-12.06 36.38-20.04 56.87-23.35v-14.06c0-8.25-3.47-15.87-9.53-20.9-11.29-9.37-17.76-23.15-17.76-37.79 0-27.08 22.04-49.11 49.14-49.11 9.15 0 17.73 2.51 25.07 6.89 14.4 8.56 24.07 24.28 24.07 42.22 0 14.32-6.24 27.9-17.13 37.24-5.82 5-9.16 12.5-9.16 20.58v15.09c20.31 3.44 39.57 11.49 56.35 23.53l22.73-22.73c4.34-4.33 7.11-9.78 7.81-15.33.97-7.68 4.38-14.63 9.86-20.11 6.54-6.54 15.24-10.14 24.49-10.14h.01c9.26 0 17.96 3.61 24.5 10.16 6.55 6.54 10.16 15.24 10.16 24.5.01 9.25-3.6 17.95-10.14 24.5-5.23 5.23-11.85 8.59-19.14 9.72-5.92.92-11.26 3.62-15.43 7.79l-23.31 23.3c11.98 16.82 19.95 36.11 23.32 56.44h14.57c8.17 0 15.73-3.41 20.75-9.35 9.36-11.08 23.03-17.44 37.51-17.44 27.08 0 49.11 22.04 49.11 49.14s-22.03 49.14-49.11 49.14c-14.48 0-28.15-6.36-37.51-17.44-5.02-5.94-12.58-9.35-20.75-9.35z" fill="#ff2261"/><g><path d="m256.75 221.61c0 16.97-13.81 30.78-30.78 30.78-3.5 0-6.87-.59-10-1.67-12.08-4.16-20.78-15.64-20.78-29.11s8.7-24.95 20.78-29.11c3.13-1.08 6.5-1.67 10-1.67 16.97 0 30.78 13.81 30.78 30.78z" fill="#99f5d2"/><path d="m256.75 221.61c0 16.97-13.81 30.78-30.78 30.78-3.5 0-6.87-.59-10-1.67 12.08-4.16 20.78-15.64 20.78-29.11s-8.7-24.95-20.78-29.11c3.13-1.08 6.5-1.67 10-1.67 16.97 0 30.78 13.81 30.78 30.78z" fill="#69d8e4"/><path d="m324.88 262.19c0 15.41-12.54 27.94-27.95 27.94-3.52 0-6.89-.65-10-1.86-10.48-4.02-17.94-14.19-17.94-26.08s7.46-22.06 17.94-26.08c3.11-1.21 6.48-1.86 10-1.86 15.41 0 27.95 12.53 27.95 27.94z" fill="#99f5d2"/><path d="m324.88 262.19c0 15.41-12.54 27.94-27.95 27.94-3.52 0-6.89-.65-10-1.86 10.49-4.02 17.95-14.19 17.95-26.08s-7.46-22.06-17.95-26.08c3.11-1.21 6.48-1.86 10-1.86 15.41 0 27.95 12.53 27.95 27.94z" fill="#69d8e4"/><path d="m255.47 298.48c0 12.82-10.43 23.25-23.25 23.25-3.58 0-6.97-.81-10-2.27-7.83-3.74-13.25-11.74-13.25-20.98s5.42-17.24 13.25-20.98c3.03-1.46 6.42-2.27 10-2.27 12.82 0 23.25 10.43 23.25 23.25z" fill="#99f5d2"/><path d="m255.47 298.48c0 12.82-10.43 23.25-23.25 23.25-3.58 0-6.97-.81-10-2.27 7.83-3.74 13.25-11.74 13.25-20.98s-5.42-17.24-13.25-20.98c3.03-1.46 6.42-2.27 10-2.27 12.82 0 23.25 10.43 23.25 23.25z" fill="#69d8e4"/></g><path d="m390.06 278.35c-3.36 20.31-11.32 39.57-23.27 56.37l12.34 12.34c6.97 6.97 17.04 9.91 26.27 7.66 23.6-5.73 47.92 1.07 65.06 18.22 13.8 13.8 21.03 32.44 20.09 52.1-.72 14.88-6.28 29.22-15.81 40.65-26.3 31.53-73.45 33.13-101.81 4.77-17.04-17.05-23.96-42.19-18.06-65.61 2.34-9.28-.57-19.41-7.59-26.44l-12.02-12.01c-16.79 12.07-36.07 20.13-56.41 23.58v15.09c0 8.08 3.34 15.58 9.16 20.58 10.89 9.34 17.13 22.92 17.13 37.24 0 18.01-9.75 33.79-24.26 42.33 5.19-6.94 8.26-15.55 8.26-24.88 0-14.81-7.73-27.8-19.38-35.16-8.65-5.48-13.91-14.98-13.91-25.22v-24.516c0-5.457 3.873-10.153 9.235-11.166 54.428-10.279 95.915-63.777 95.915-128.218 0-64.451-41.487-117.94-95.915-128.218-5.362-1.013-9.235-5.709-9.235-11.166v-24.786c0-10.24 5.26-19.75 13.91-25.22 11.65-7.37 19.38-20.36 19.38-35.16 0-9.22-2.99-17.73-8.07-24.62 14.4 8.56 24.07 24.28 24.07 42.22 0 14.32-6.24 27.9-17.13 37.24-5.82 5-9.16 12.5-9.16 20.58v15.09c20.31 3.44 39.57 11.49 56.35 23.53l22.73-22.73c4.34-4.33 7.11-9.78 7.81-15.33 1.26-10.01 6.67-18.78 15.4-24.67 5.57-3.75 12.22-5.58 18.94-5.58h.02c9.26 0 17.96 3.61 24.5 10.16 6.55 6.54 10.16 15.24 10.16 24.5.01 9.25-3.6 17.95-10.14 24.5-5.23 5.23-11.85 8.59-19.14 9.72-5.92.92-11.26 3.62-15.43 7.79l-23.31 23.3c11.98 16.82 19.95 36.11 23.32 56.44h14.57c8.17 0 15.73-3.41 20.75-9.35 9.36-11.08 23.03-17.44 37.51-17.44 27.08 0 49.11 22.04 49.11 49.14s-22.03 49.14-49.11 49.14c-14.48 0-28.15-6.36-37.51-17.44-5.02-5.94-12.58-9.35-20.75-9.35z" fill="#b7305d"/><g fill="#99f5d2"><circle cx="60.536" cy="82.728" r="7.495"/><ellipse cx="66.266" cy="110.461" rx="7.495" ry="7.495" transform="matrix(.383 -.924 .924 .383 -61.145 129.411)"/><ellipse cx="86.676" cy="94.422" rx="7.495" ry="7.495" transform="matrix(.383 -.924 .924 .383 -33.729 138.366)"/><path d="m418.541 399.219c4.14 0 7.495-3.356 7.495-7.495 0-4.14-3.356-7.495-7.495-7.495s-7.495 3.356-7.495 7.495c-.001 4.139 3.355 7.495 7.495 7.495z"/><path d="m416.775 419.457c0 4.14 3.356 7.495 7.495 7.495s7.495-3.356 7.495-7.495c0-4.14-3.356-7.495-7.495-7.495s-7.495 3.355-7.495 7.495z"/><ellipse cx="444.68" cy="403.419" rx="7.495" ry="7.495" transform="matrix(.383 -.924 .924 .383 -98.202 659.868)"/><circle cx="285.68" cy="330.419" r="7.495"/><ellipse cx="285.676" cy="188.419" rx="7.495" ry="7.495" transform="matrix(.987 -.16 .16 .987 -26.493 48.193)"/><ellipse cx="188.676" cy="268.419" rx="7.495" ry="7.495" transform="matrix(.383 -.924 .924 .383 -131.514 340.013)"/></g></g></svg>