<svg id="Layer_1" enable-background="new 0 0 512.221 512.221" height="512" viewBox="0 0 512.221 512.221" width="512" xmlns="http://www.w3.org/2000/svg"><g><g><path d="m37.408 439.427c-5.522 0-10-4.477-10-10v-32.847c0-11.158 9.078-20.237 20.236-20.237 12.601 0 22.853-10.251 22.853-22.852v-40.152c0-5.523 4.478-10 10-10s10 4.477 10 10v40.152c0 23.629-19.224 42.852-42.853 42.852-.13 0-.236.106-.236.237v32.847c0 5.523-4.477 10-10 10z" fill="#c8e6eb"/></g><g><path d="m45.798 279.881c-5.522 0-10-4.477-10-10v-88.349c0-19.033 15.484-34.518 34.518-34.518 19.032 0 34.517 15.485 34.517 34.518v6.764c0 5.523-4.478 10-10 10s-10-4.477-10-10v-6.764c0-8.005-6.512-14.518-14.517-14.518s-14.518 6.512-14.518 14.518v88.349c0 5.523-4.478 10-10 10z" fill="#b4d7dc"/></g><g id="XMLID_7052_"><path d="m223.298 244.64c-4.782-10.298-.311-22.523 9.987-27.305l79.397-36.872 59.696-65.668c7.639-8.402 20.642-9.02 29.042-1.383 8.401 7.638 9.021 20.64 1.384 29.042l-62.488 68.738c-1.842 2.026-4.069 3.664-6.553 4.817l-83.16 38.62c-10.295 4.78-22.522.31-27.305-9.989z" fill="#ffa68a"/></g><ellipse cx="315.299" cy="45.389" fill="#ffb69e" rx="45.377" ry="45.377" transform="matrix(.987 -.16 .16 .987 -3.201 50.996)"/><g id="XMLID_7050_"><path d="m351.596 491.175-17.696-119.027c-.502-3.379-.298-6.825.602-10.121l28.577-104.756c3.586-13.145 17.147-20.895 30.294-17.308 13.145 3.586 20.894 17.149 17.308 30.294l-27.214 99.758 16.935 113.903c2.004 13.477-7.298 26.027-20.774 28.03-13.511 2.01-26.033-7.328-28.032-20.773z" fill="#5f6e9b"/></g><g id="XMLID_7049_"><path d="m435.736 491.175-17.696-119.027c-.325-2.185-.354-4.403-.089-6.596l12.693-104.755c1.639-13.527 13.952-23.161 27.459-21.524 13.526 1.639 23.162 13.933 21.523 27.459-3.073 25.363-12.293 101.452-12.293 101.452l17.207 115.735c2.004 13.477-7.298 26.027-20.774 28.03-13.508 2.009-26.03-7.329-28.03-20.774z" fill="#414b82"/></g><path d="m478.259 255.157-38.049-122.355c-5.749-17.267-18.447-31.35-35.029-38.849-16.582-7.5-35.542-7.735-52.305-.65-26.308 11.12-39.198 40.981-29.245 67.752l34.898 93.869c8.173 21.984 32.67 33.125 54.611 24.835z" fill="#64afff"/><g id="XMLID_7045_"><path d="m331.439 139.958-29.028 17.646-80.582 11.862c-11.233 1.654-18.999 12.101-17.346 23.334 1.658 11.257 12.125 18.996 23.334 17.345l84.73-12.473c2.737-.403 5.366-1.355 7.728-2.798l28.987-17.621 6.864-25.993z" fill="#ffb69e"/><path d="m405.093 119.036c-5.921-9.688-18.574-12.741-28.264-6.82l-45.391 27.743 17.824 37.295 49.01-29.955c9.688-5.921 12.742-18.575 6.821-28.263z" fill="#4699f2"/></g><path d="m27.408 269.881v62.489h94.317c34.512 0 62.489-27.977 62.489-62.489z" fill="#a5c8cd"/><path d="m190.875 259.881h-163.467v20h163.467c5.522 0 10-4.477 10-10s-4.477-10-10-10z" fill="#c8e6eb"/></g></svg>