<svg id="Layer_1" enable-background="new 0 0 510.946 510.946" height="512" viewBox="0 0 510.946 510.946" width="512" xmlns="http://www.w3.org/2000/svg"><g><g><g><g><g><path d="m236.585 97.512-.591 4.073c-1.822 12.55 7.91 23.797 20.592 23.797 13.031 0 22.855-11.841 20.45-24.648l-.605-3.222z" fill="#ffb69e"/><path d="m318.164 196.231v98.233c0 11.207 9.085 20.292 20.291 20.292s20.291-9.085 20.291-20.292v-98.233l-20.291-5.379z" fill="#ffb69e"/><g id="XMLID_8_"><path d="m285.118 510.946c-13.448 0-24.349-10.901-24.349-24.349v-194.628c0-13.448 10.902-24.349 24.349-24.349s24.349 10.901 24.349 24.349v194.628c.001 13.447-10.901 24.349-24.349 24.349z" fill="#414b82"/></g><g id="XMLID_7_"><path d="m225.899 510.946c-13.448 0-24.349-10.901-24.349-24.349v-194.628c0-13.448 10.902-24.349 24.349-24.349 13.448 0 24.349 10.901 24.349 24.349v194.628c0 13.447-10.902 24.349-24.349 24.349z" fill="#5f6e9b"/></g><ellipse cx="255.512" cy="42.054" fill="#ffb69e" rx="42.054" ry="42.054" transform="matrix(.055 -.999 .999 .055 199.393 294.85)"/><path d="m152.199 196.231v98.233c0 11.207 9.085 20.292 20.291 20.292s20.291-9.085 20.291-20.292v-98.233l-16.505-12.906z" fill="#ffb69e"/><path d="m358.746 145.291c-.132-26.346-22.009-47.778-48.767-47.778h-33.549c.042 10.475-9.745 19.267-19.958 19.267-10.946 0-19.091-8.761-19.887-19.267h-35.54c-26.802 0-48.714 21.433-48.846 47.778v.102 50.838h40.582v-50.764c.038-3.862 3.969-7.371 8.264-7.371h.504v153.874h107.918l-.189-153.874h.7c4.252 0 8.143 3.505 8.185 7.365v50.771h40.582v-50.838c.002-.035.002-.069.001-.103z" fill="#64afff"/></g></g></g></g><path d="m296.736 56.371h-9.263v-6.142c0-4.465-3.619-8.084-8.084-8.084h-49.011c-4.465 0-8.084 3.619-8.084 8.084v6.142h-8.084c-2.375 0-4.3 1.925-4.3 4.3v6.399c0 2.375 1.925 4.3 4.3 4.3h8.084v6.142c0 4.465 3.62 8.084 8.084 8.084h49.01c4.465 0 8.084-3.619 8.084-8.084v-6.142h9.263c2.375 0 4.3-1.925 4.3-4.3v-6.399c.001-2.374-1.924-4.3-4.299-4.3z" fill="#55c7a6"/></g></svg>